<?xml version="1.0" standalone="no"?>
<!DOCTYPE svg PUBLIC "-//W3C//DTD SVG 20010904//EN"
 "http://www.w3.org/TR/2001/REC-SVG-20010904/DTD/svg10.dtd">
<svg version="1.0" xmlns="http://www.w3.org/2000/svg"
 width="289.000000pt" height="289.000000pt" viewBox="0 0 289.000000 289.000000"
 preserveAspectRatio="xMidYMid meet">
<metadata>
Created by potrace 1.11, written by Peter Selinger 2001-2013
</metadata>
<g transform="translate(0.000000,289.000000) scale(0.100000,-0.100000)"
fill="#000000" stroke="none">
<path d="M339 1980 c-133 -43 -222 -141 -245 -270 -11 -63 -12 -178 -2 -220 5
-19 11 -46 14 -60 13 -63 78 -144 149 -185 92 -55 281 -64 426 -21 l44 13 0
199 0 199 -142 0 -143 0 0 -58 0 -57 78 2 77 2 3 -93 c2 -57 -1 -98 -7 -104
-6 -6 -50 -12 -98 -14 -69 -2 -97 2 -130 17 -99 44 -138 120 -138 270 0 103
17 153 73 213 63 67 187 93 291 61 94 -29 90 -29 105 7 28 69 28 77 4 85 -13
4 -25 7 -28 7 -3 0 -23 6 -46 13 -63 19 -219 15 -285 -6z"/>
<path d="M850 1588 l0 -393 227 1 228 0 3 57 3 57 -38 1 c-21 0 -94 1 -163 2
l-125 2 -2 290 c-1 160 -2 309 -2 333 l-1 42 -65 0 -65 0 0 -392z"/>
<path d="M1464 1970 c-42 -9 -52 -16 -70 -51 -41 -81 15 -163 106 -155 41 3
50 15 50 62 l0 44 -40 0 c-22 0 -40 -4 -40 -10 0 -5 13 -10 28 -10 25 0 29 -4
30 -31 1 -36 -28 -51 -71 -36 -51 17 -68 67 -45 129 14 38 70 55 112 35 13 -6
17 -5 14 4 -6 18 -39 27 -74 19z"/>
<path d="M1684 1972 c-52 -8 -84 -85 -63 -150 12 -35 40 -56 79 -58 78 -3 122
98 75 172 -16 24 -59 42 -91 36z m47 -21 c35 -2 56 -88 33 -132 -22 -44 -78
-53 -110 -18 -29 32 -25 115 6 139 13 10 31 16 39 15 9 -2 23 -4 32 -4z"/>
<path d="M2120 1970 c-25 -3 -40 -8 -35 -12 14 -9 84 -8 90 2 8 13 -7 16 -55
10z"/>
<path d="M2737 1973 c-5 -4 -28 -10 -49 -12 -14 -2 -39 -61 -40 -95 -1 -37 21
-79 50 -95 16 -8 39 -9 85 -2 4 0 16 16 27 34 23 37 25 91 6 126 -13 23 -69
55 -79 44z m60 -50 c20 -30 11 -112 -14 -130 -25 -19 -70 -16 -93 7 -24 24
-27 95 -5 127 27 38 86 36 112 -4z"/>
<path d="M1859 1938 c-3 -118 -1 -173 7 -170 5 1 9 38 9 82 0 44 1 80 2 80 2
0 20 -26 40 -57 20 -32 39 -60 43 -63 4 -3 12 -15 19 -28 7 -12 15 -21 19 -18
9 5 8 194 -1 203 -7 6 -8 -11 -9 -110 0 -59 -8 -54 -69 43 -24 38 -47 70 -51
70 -5 0 -8 -15 -9 -32z"/>
<path d="M2187 1963 c-4 -3 -7 -14 -7 -23 0 -9 -9 -26 -20 -38 -11 -12 -20
-24 -20 -27 0 -4 -13 -26 -30 -50 -16 -24 -30 -47 -30 -52 0 -11 126 -11 136
0 7 7 -37 11 -89 7 l-28 -2 55 84 c31 45 56 88 56 95 0 14 -13 17 -23 6z"/>
<path d="M2498 1958 c-2 -7 -4 -53 -3 -103 l0 -90 58 0 c69 -1 77 13 10 17
l-48 3 -1 88 c-1 83 -6 114 -16 85z"/>
<path d="M2340 1945 c0 -8 -4 -23 -10 -33 -12 -21 -60 -143 -60 -151 1 -12 40
42 40 54 0 16 21 25 46 20 11 -2 24 -4 30 -4 6 -1 18 -17 28 -37 9 -20 20 -34
23 -30 4 3 2 16 -4 29 -11 21 -25 56 -27 67 -1 3 -7 14 -13 25 -6 11 -12 25
-12 30 -3 27 -14 45 -27 45 -8 0 -14 -7 -14 -15z m37 -60 c11 -35 11 -35 -18
-33 -32 2 -33 5 -19 42 13 35 25 33 37 -9z"/>
<path d="M1444 1672 c-21 -3 -22 -6 -21 -235 0 -128 3 -234 7 -237 6 -4 190
-5 248 -1 6 1 12 12 12 26 l0 25 -104 0 -104 0 2 210 c0 132 -3 211 -9 213 -5
2 -20 1 -31 -1z"/>
<path d="M1999 1668 c-9 -7 -24 -35 -34 -63 -9 -27 -23 -63 -30 -80 -75 -177
-125 -319 -114 -325 27 -17 48 4 76 73 l28 72 88 0 c49 0 92 -2 96 -5 4 -3 18
-35 32 -72 17 -49 29 -68 44 -70 38 -8 43 0 28 40 -7 20 -16 44 -19 53 -38
111 -155 385 -165 387 -8 1 -21 -3 -30 -10z m57 -175 c19 -49 34 -89 34 -90 0
-2 -32 -3 -71 -3 -53 0 -70 3 -67 13 3 6 18 49 34 94 16 45 31 80 33 77 2 -2
19 -43 37 -91z"/>
<path d="M2237 1673 c-3 -2 9 -55 25 -116 17 -62 45 -166 62 -231 25 -95 35
-120 52 -126 11 -5 26 -5 32 -1 10 6 58 156 102 320 13 48 19 59 24 45 9 -21
56 -179 88 -291 20 -71 32 -84 69 -75 15 3 36 61 55 152 4 21 63 242 80 301 6
20 -22 32 -44 20 -11 -6 -32 -69 -63 -192 -28 -110 -49 -175 -52 -164 -5 16
-26 94 -32 115 -4 15 -48 160 -58 190 -15 46 -19 51 -51 54 -24 3 -27 -2 -51
-83 -15 -47 -29 -95 -33 -106 -3 -11 -7 -22 -7 -25 -1 -3 -9 -31 -19 -64 -10
-32 -19 -65 -20 -72 -4 -26 -16 -27 -17 -1 -2 33 3 13 -43 195 -21 83 -43 152
-50 153 -6 0 -19 2 -28 4 -9 2 -19 1 -21 -2z"/>
<path d="M90 1095 c0 -14 2732 -14 2737 0 2 7 -469 10 -1367 10 -907 0 -1370
-3 -1370 -10z"/>
<path d="M88 1018 c-7 -52 3 -86 28 -91 14 -2 30 3 39 13 19 21 21 94 3 87 -7
-2 -12 -12 -10 -22 6 -29 -7 -62 -23 -62 -14 0 -20 25 -16 69 3 25 -17 31 -21
6z"/>
<path d="M220 1025 c-13 -16 -6 -33 22 -53 23 -16 13 -35 -13 -27 -22 7 -26
-10 -4 -19 44 -17 67 30 30 62 -21 18 -23 23 -11 28 8 3 20 3 26 -1 5 -3 10
-2 10 3 0 9 -23 22 -40 22 -4 0 -13 -7 -20 -15z"/>
<path d="M381 1026 c-6 -7 -9 -20 -5 -29 3 -8 1 -18 -5 -21 -11 -7 -4 -37 11
-47 5 -3 22 -5 40 -4 27 1 31 5 33 33 2 27 0 30 -15 22 -22 -12 -34 -1 -19 16
14 17 5 44 -14 44 -8 0 -20 -6 -26 -14z m29 -16 c0 -5 -4 -10 -10 -10 -5 0
-10 5 -10 10 0 6 5 10 10 10 6 0 10 -4 10 -10z m0 -55 c0 -9 -6 -12 -15 -9 -8
4 -12 10 -9 15 8 14 24 10 24 -6z"/>
<path d="M513 985 c0 -30 3 -55 7 -55 11 0 16 19 15 64 0 63 -21 54 -22 -9z"/>
<path d="M565 1032 c-13 -9 -17 -102 -5 -102 11 0 13 12 11 45 l-2 20 16 -20
c9 -11 19 -25 23 -32 4 -6 13 -13 21 -15 10 -2 13 9 13 42 0 67 -1 72 -13 64
-6 -3 -9 -21 -7 -40 4 -38 3 -37 -26 11 -12 19 -26 31 -31 27z"/>
<path d="M660 1030 c0 -4 7 -10 15 -13 8 -4 12 -15 10 -29 -6 -28 3 -60 15
-53 5 3 7 21 5 41 -2 24 2 37 11 41 25 9 15 19 -21 20 -19 1 -35 -3 -35 -7z"/>
<path d="M749 1030 c-6 -30 -3 -93 5 -98 17 -10 56 -11 56 -1 0 8 -14 13 -32
11 -3 -1 -9 5 -12 13 -4 10 1 15 14 15 11 0 20 5 20 10 0 6 -7 10 -15 10 -8 0
-15 7 -15 15 0 8 9 15 21 15 11 0 17 4 14 10 -6 10 -54 10 -56 0z"/>
<path d="M828 1023 c-9 -37 -3 -86 11 -91 10 -3 12 0 8 11 -10 28 10 28 28 1
19 -30 32 -26 15 5 -7 15 -8 27 0 40 7 15 6 23 -6 35 -21 21 -51 20 -56 -1z
m42 -18 c0 -8 -4 -15 -9 -15 -13 0 -22 16 -14 24 11 11 23 6 23 -9z"/>
<path d="M918 1027 c-9 -24 -3 -90 8 -94 7 -2 10 6 9 22 -4 30 11 43 20 16 7
-24 45 -58 46 -43 2 16 2 45 0 85 -1 27 -3 29 -12 14 -6 -10 -8 -25 -5 -32 11
-28 -12 -24 -24 4 -13 32 -36 47 -42 28z"/>
<path d="M1035 990 c-18 -56 -15 -71 10 -47 18 19 45 12 45 -11 0 -11 3 -13
10 -6 13 13 -18 105 -37 111 -6 2 -19 -18 -28 -47z m35 -1 c0 -11 -4 -18 -10
-14 -5 3 -7 12 -3 20 7 21 13 19 13 -6z"/>
<path d="M1104 1029 c-3 -5 2 -9 10 -9 15 0 20 -17 18 -67 -1 -13 5 -23 11
-23 9 0 12 14 11 41 -1 28 3 42 13 46 20 8 29 -9 27 -51 -1 -21 3 -36 10 -36
12 0 15 94 3 106 -4 4 -7 2 -7 -5 0 -7 -5 -9 -12 -5 -17 11 -77 13 -84 3z"/>
<path d="M1251 1026 c-7 -8 -14 -26 -17 -40 -6 -33 31 -69 60 -60 28 8 26 6
33 49 5 30 2 41 -12 51 -24 18 -49 18 -64 0z m55 -31 c7 -29 -11 -56 -31 -49
-30 12 -21 74 10 74 8 0 17 -11 21 -25z"/>
<path d="M1349 1028 c-4 -72 -2 -92 8 -95 9 -3 12 5 9 26 -4 34 9 42 19 12 3
-10 14 -26 25 -36 22 -20 22 -20 22 45 1 60 -1 67 -12 49 -5 -9 -8 -26 -5 -38
5 -28 -11 -18 -30 20 -16 30 -34 39 -36 17z"/>
<path d="M1475 1007 c-7 -18 -17 -46 -20 -63 -6 -28 -6 -28 10 -9 19 24 36 26
52 5 7 -8 13 -13 13 -10 7 31 7 40 -3 40 -5 0 -8 3 -4 6 6 7 -19 64 -29 64 -3
0 -11 -15 -19 -33z m29 -16 c3 -5 -1 -11 -9 -14 -9 -4 -12 -1 -8 9 6 16 10 17
17 5z"/>
<path d="M1555 1028 c-6 -18 -1 -81 7 -94 4 -6 19 -9 33 -7 13 3 22 9 19 14
-3 5 -9 7 -14 4 -14 -9 -27 19 -26 53 1 35 -11 54 -19 30z"/>
<path d="M1680 1020 c-37 -37 -6 -102 45 -92 30 5 24 17 -8 17 -18 0 -22 6
-22 35 0 30 3 35 23 34 12 0 21 4 19 10 -7 20 -35 18 -57 -4z"/>
<path d="M1767 1022 c-40 -44 3 -119 52 -92 12 6 21 14 22 18 0 4 2 18 5 31 5
27 -20 61 -46 61 -9 0 -24 -8 -33 -18z m51 -19 c11 -20 -2 -63 -17 -63 -11 0
-28 29 -27 45 2 15 16 35 26 35 5 0 13 -8 18 -17z"/>
<path d="M1869 1025 c0 -8 -1 -28 -1 -45 0 -46 1 -50 12 -50 6 0 10 10 10 23
l0 22 20 -25 c10 -14 22 -22 26 -18 4 4 2 14 -4 21 -7 8 -9 16 -7 19 15 15 12
49 -5 58 -27 14 -50 12 -51 -5z m44 -11 c9 -9 -4 -35 -14 -28 -5 3 -9 12 -9
20 0 14 12 19 23 8z"/>
<path d="M1959 1019 c-4 -67 0 -104 9 -95 7 7 8 12 11 38 0 6 4 8 8 5 8 -9 43
22 43 39 0 16 -16 26 -47 30 -17 2 -23 -3 -24 -17z m45 -8 c3 -5 -1 -14 -9
-21 -13 -10 -15 -9 -15 9 0 21 14 28 24 12z"/>
<path d="M2064 1032 c-34 -22 -34 -73 -1 -100 22 -19 63 1 71 33 12 48 -33 92
-70 67z m49 -38 c4 -24 -14 -54 -34 -54 -12 0 -23 46 -15 65 9 25 43 18 49
-11z"/>
<path d="M2159 1026 c-6 -49 -2 -96 8 -96 6 0 10 9 8 20 -5 28 9 25 25 -5 8
-16 17 -22 23 -16 5 5 6 15 1 23 -5 7 -9 29 -9 48 0 31 -3 35 -27 36 -16 1
-29 -4 -29 -10z m41 -21 c0 -8 -4 -15 -9 -15 -13 0 -22 16 -14 24 11 11 23 6
23 -9z"/>
<path d="M2266 1008 c-8 -19 -18 -47 -22 -64 l-7 -29 22 23 c27 27 37 28 51 1
18 -33 24 -13 10 36 -18 65 -36 76 -54 33z m28 -23 c3 -8 1 -15 -4 -15 -6 0
-10 7 -10 15 0 8 2 15 4 15 2 0 6 -7 10 -15z"/>
<path d="M2324 1028 c-3 -4 3 -8 14 -8 15 0 19 -7 18 -42 -1 -23 4 -43 9 -45
6 -2 10 13 10 34 -1 27 5 43 20 55 19 17 19 17 -23 15 -24 -1 -46 -5 -48 -9z"/>
<path d="M2423 1029 c-5 -5 -6 -30 -3 -56 4 -39 8 -47 28 -48 30 -2 38 11 11
18 -21 6 -22 32 -1 32 5 0 14 3 18 8 4 4 -2 7 -14 7 -13 0 -22 6 -22 15 0 8 9
15 20 15 11 0 20 4 20 9 0 11 -46 11 -57 0z"/>
<path d="M2539 1023 c-6 -97 2 -109 61 -93 3 1 -5 5 -17 10 -22 9 -28 28 -24
72 1 9 -3 19 -9 23 -5 3 -10 -2 -11 -12z"/>
<path d="M2643 1028 c-15 -21 -35 -89 -28 -96 3 -4 10 0 15 8 13 21 32 19 53
-5 18 -20 18 -20 13 6 -6 29 -34 99 -40 99 -2 0 -8 -6 -13 -12z m14 -50 c-3
-8 -6 -5 -6 6 -1 11 2 17 5 13 3 -3 4 -12 1 -19z"/>
<path d="M2700 1028 c0 -7 6 -35 13 -63 l13 -49 17 24 c9 14 17 31 18 40 0 8
6 0 12 -17 11 -29 31 -45 33 -25 0 4 4 15 9 25 4 10 5 21 1 24 -3 3 -1 12 5
19 6 7 7 19 3 26 -5 8 -12 0 -20 -23 -8 -22 -14 -29 -17 -19 -3 8 -8 24 -11
34 -8 23 -17 15 -32 -27 l-11 -32 -7 32 c-8 33 -26 55 -26 31z"/>
<path d="M180 941 c0 -6 5 -13 10 -16 6 -3 10 1 10 9 0 9 -4 16 -10 16 -5 0
-10 -4 -10 -9z"/>
<path d="M290 941 c0 -6 5 -13 10 -16 6 -3 10 1 10 9 0 9 -4 16 -10 16 -5 0
-10 -4 -10 -9z"/>
<path d="M85 871 c-3 -6 509 -10 1370 -10 863 0 1375 4 1375 9 0 13 -2737 13
-2745 1z"/>
</g>
</svg>
